<?xml version="1.0" standalone="no"?>
<!DOCTYPE svg PUBLIC "-//W3C//DTD SVG 20010904//EN"
 "http://www.w3.org/TR/2001/REC-SVG-20010904/DTD/svg10.dtd">
<svg version="1.0" xmlns="http://www.w3.org/2000/svg"
 width="500.000000pt" height="500.000000pt" viewBox="0 0 500.000000 500.000000"
 preserveAspectRatio="xMidYMid meet">
<metadata>
Created by potrace 1.16, written by Peter Selinger 2001-2019
</metadata>
<g transform="translate(0.000000,500.000000) scale(0.100000,-0.100000)"
fill="#000000" stroke="none">
<path d="M3500 2969 c0 -4 6 -22 14 -40 7 -19 16 -47 20 -64 l6 -30 -20 35
c-22 40 -27 33 -6 -9 19 -36 51 -160 61 -231 7 -53 7 -54 -11 -39 -33 28 -43
31 -37 9 3 -11 9 -20 14 -20 15 0 49 -63 49 -90 0 -20 -2 -22 -11 -10 -8 12
-9 11 -5 -6 4 -13 -3 -32 -19 -54 -14 -19 -25 -31 -25 -27 0 4 -11 0 -25 -9
-24 -16 -27 -16 -40 2 -13 17 -14 17 -15 2 0 -9 7 -21 16 -26 15 -8 15 -10 0
-15 -9 -4 -16 -2 -16 3 0 5 -6 7 -14 4 -9 -3 -16 2 -18 13 -3 14 -5 12 -9 -8
-5 -23 -3 -25 18 -21 22 4 23 2 18 -24 -5 -25 -4 -26 4 -7 11 24 51 67 51 56
0 -5 7 1 15 11 8 11 15 16 15 11 0 -5 14 4 30 20 l31 29 -7 -57 c-4 -36 -3
-57 3 -57 14 0 22 94 16 188 l-6 82 179 3 179 2 -176 3 -176 2 -7 67 c-6 62
-64 260 -86 293 -5 8 -10 12 -10 9z"/>
<path d="M1547 2702 c3 -6 -1 -22 -9 -35 -8 -14 -14 -54 -15 -107 -1 -78 -1
-81 7 -32 4 29 10 56 13 58 3 3 83 5 179 5 149 -1 175 -4 185 -18 7 -9 14 -15
16 -12 9 10 22 106 18 129 -3 18 -8 8 -16 -35 -6 -33 -14 -59 -18 -57 -4 1
-77 2 -163 2 l-155 0 3 32 c3 28 9 35 45 48 61 22 44 41 -34 38 -44 -2 -59 -6
-56 -16z"/>
</g>
</svg>
